<svg xmlns="http://www.w3.org/2000/svg" xmlns:xlink="http://www.w3.org/1999/xlink" preserveAspectRatio="xMidYMid meet" version="1.0" viewBox="139.8 14.9 219.5 471.0" zoomAndPan="magnify" style="fill: rgb(0, 0, 0);" original_string_length="1616"><g id="__id384_smpdzexoo"><path d="M358.7,44.5c0.6,7.8-4.1,13.4-9.9,18.4c-6.6,5.5-14.8,7.9-22.7,10.9c-10.7,4-21.2,8.5-31.8,13 c-2.2,0.9-4.2,2.2-6.2,3.5c-8.8,5.4-9.6,8.1-4,17.1c3.5,5.7,7.3,11.5,11.9,16.2c10.3,10.6,17.6,23,24.5,35.8 c7.5,13.8,4.1,27.8-7.8,38.1c-13.5,11.7-28.9,19.5-46,24.4c-6.5,1.9-12.9,4-19.1,6.6c-8.2,3.4-9.2,8.2-3.3,14.8 c9.1,10,18.4,19.7,27.6,29.6c0.9,1,1.9,2.1,3.1,2.6c13.3,6.6,19,19.7,26.4,31.2c3.1,4.9,2.4,10.7,0,15.6 c-7.4,15.1-17.7,27.2-32.9,35.7c-15.5,8.7-32.4,13.2-48.7,19.6c-3.4,1.3-6.8,3-9.7,5.2c-4.9,3.7-5.1,6.4-1.2,10.9 c1.7,2.1,3.9,3.7,5.6,5.8c4.9,6,10.2,11.5,13.8,18.6c2.4,4.7,6.6,8.4,10,12.7c4.8,6.1,9.5,12.2,14.1,18.4c3.8,5.1,4.7,11.1,4.5,17.3 c-0.3,9.7-6,15.5-15.6,16.4c-4,0.4-8.1,0.7-12,1.4c-9.5,1.6-18.3-0.5-25.8-6.2c-7.5-5.7-14.3-12.2-19.5-20.3 c-3.8-5.9-8.4-11.4-12.7-17c-14.4-19.1-25.9-39.4-29.7-63.4c-1.8-11.6,5.8-26.6,17.2-33.1c6.4-3.7,13.1-7.1,19.9-9.9 c15.3-6.4,29.7-14.3,43.6-23.3c1.4-0.9,2.8-1.9,4-3c2.9-2.9,3.9-6.2,1.8-10.1c-1-1.8-1.7-3.7-2.8-5.4c-7.5-11.2-15.2-22.2-22.5-33.5 c-5.6-8.8-10.6-17.9-15.8-27c-2.9-5-2.4-10-0.8-15.6c4.1-14.1,15-20.9,26.9-26.8c13-6.5,26-12.8,38.7-19.8c9.9-5.5,15-9.6,3.4-21.5 c-11.8-12.1-22.9-24.8-31-39.8c-6-11-4.1-26.3,4.2-35.6c10-11.2,23.5-16.6,36.6-22.8c15.8-7.5,31.4-15.4,47-23.4 c3.9-2,7.2-4.9,10.7-7.6c4.6-3.7,9.6-4.3,15.2-2.8C353.5,20.6,358.9,27.6,358.7,44.5z" style="fill: rgb(22, 206, 154);"/></g></svg>