<svg xmlns="http://www.w3.org/2000/svg" xmlns:xlink="http://www.w3.org/1999/xlink" preserveAspectRatio="xMidYMid meet" version="1.0" viewBox="39.9 134.4 420.0 231.2" zoomAndPan="magnify" style="fill: rgb(0, 0, 0);" original_string_length="2140"><g id="__id150_smpdzexoo"><path d="M95.8,155.6c12.2,13.8,23.1,25.9,31.5,40.1c6,10.1,12.4,19.9,18.7,29.8c0.5,0.8,0.9,1.7,1.5,2.3 c6.4,6.5,9.6,15.1,14.8,22.3c4.4,6.2,9.1,12.1,15.3,16.7c5,3.6,11,3.8,15.9,0c5.2-4,8.6-8.8,9.9-15.8c3-15.7,3.6-31.6,5.8-47.3 c0.7-5.2,1.6-10.5,3.2-15.5c2.1-6.4,7.1-10.7,12.8-13.9c3-1.7,6.3-3,9.7-3.6c2.8-0.6,6.1-0.7,8.7,0.3c5.2,1.8,10.1,4.6,13.7,9 c6.8,8.5,12.3,17.8,17,27.6c0.7,1.4,1,3.2,2.1,4.3c6.2,6.7,8,15.4,11.5,23.4c4.4,10.1,8.7,20.3,13.7,30.2c1.8,3.5,5.1,6.5,8.2,9.1 c2.7,2.3,6.2,3,9.8,2.6c6.3-0.8,8.2-2.2,9-8.5c0.9-7.1,0.9-14.2,1.3-21.4c0.3-6.4,0.3-12.9,0.9-19.3c0.9-8.8,6.1-15,12.9-20.3 c12.9-9.9,27.3-9.6,42.1-6.9c6.2,1.1,12,3.3,17.1,7c3.2,2.3,6.4,4.4,7.6,8.5c0.3,1,1.2,1.9,1.9,2.8c4.7,5.7,10.3,10.8,13.8,17.1 c4.9,8.7,9.9,17.7,9.6,28.4c-0.1,3.8,0.7,7.8,1.9,11.5c4.1,12.8,6.4,25.9,7.2,39.3c0.4,6.6,2.9,12.6,5.5,18.5 c2.3,5.3,5,10.3,7.5,15.5c2,4.2,0.8,8.9-2.9,11.6c-6.5,4.6-13.5,4.5-19.7-0.6c-4-3.3-7.1-7.3-8.7-12.2 c-5.5-16.3-11.1-32.7-16.5-49.1c-2.2-6.5-3.9-13.2-5.7-19.9c-2.2-8.1-5.4-15.6-10.4-22.4c-3.9-5.4-9-9.2-15-11.8 c-1-0.5-2.2-0.9-3.3-1c-7.5-0.9-12.5,1.9-13,10.4c-0.4,7.4,0,14.8-0.6,22.1c-1.7,18.9-10.4,33.8-27.2,43c-6.4,3.5-13.4,6.1-21.1,4.4 c-0.7-0.1-1.4-0.2-2.1-0.1c-7.7,1.1-14.4-1.6-21.1-4.9c-9.8-4.8-16.6-12-20.3-22.2c-2.5-6.9-5.6-13.6-8.2-20.5 c-3.7-9.9-7.5-19.8-10.7-29.8c-2.1-6.4-5.9-11.4-10-16.4c-1.7-2.1-3.9-1.7-4.8,0.8c-0.8,2.1-1.4,4.4-1.5,6.7 c-0.3,7.1-0.7,14.3-0.5,21.4c0.3,10.1-1.5,19.7-6.1,28.7c-3.3,6.6-6.5,13.2-12.5,18c-7.8,6.2-16.8,9.4-26.7,10.1 c-2.7,0.2-5.5-0.3-8.1-1.2c-10.3-3.6-19.2-9.2-27-17.3c-6.9-7.3-12.7-15.1-17.2-23.9c-6.2-12-12-24.3-17.9-36.5 c-5.8-12-12.5-23.5-20.8-34.1c-1-1.3-2.1-2.5-2.9-3.9c-7.5-12.9-19-21.7-30.8-30.3c-6-4.4-12.2-8.2-19.1-11c-3.2-1.3-4.5-3.7-4.6-7 c0-0.2,0-0.5,0-0.7c0.4-3.8-1-8.3,2.9-10.8c4.3-2.8,9-4.6,14.4-3c8.8,2.6,17.9,4.8,25.6,10.1C88.5,149.5,92.8,153.3,95.8,155.6z" style="fill: rgb(125, 199, 241);"/></g></svg>